<?xml version="1.0" standalone="no"?>
<!DOCTYPE svg PUBLIC "-//W3C//DTD SVG 20010904//EN"
 "http://www.w3.org/TR/2001/REC-SVG-20010904/DTD/svg10.dtd">
<svg version="1.0" xmlns="http://www.w3.org/2000/svg"
 width="24.000000pt" height="24.000000pt" viewBox="0 0 24.000000 24.000000"
 preserveAspectRatio="xMidYMid meet">

<g transform="translate(0.000000,24.000000) scale(0.100000,-0.100000)"
fill="#000000" stroke="none">
<path d="M57 150 c28 -28 57 -50 63 -50 6 0 35 22 63 50 l52 50 -115 0 -115 0
52 -50z"/>
<path d="M202 150 l-33 -27 33 -28 33 -28 3 32 c2 17 2 42 0 55 l-3 24 -33
-28z"/>
<path d="M10 125 c0 -41 2 -45 18 -36 42 22 45 38 12 61 l-30 21 0 -46z"/>
<path d="M41 84 c-17 -14 -31 -30 -31 -35 0 -5 52 -9 116 -9 126 0 130 3 63
51 -24 17 -31 18 -49 7 -16 -10 -24 -10 -40 0 -26 16 -24 16 -59 -14z"/>
</g>
</svg>
