<?xml version="1.0" standalone="no"?>
<!DOCTYPE svg PUBLIC "-//W3C//DTD SVG 20010904//EN"
 "http://www.w3.org/TR/2001/REC-SVG-20010904/DTD/svg10.dtd">
<svg version="1.0" xmlns="http://www.w3.org/2000/svg"
 width="24.000000pt" height="24.000000pt" viewBox="0 0 24.000000 24.000000"
 preserveAspectRatio="xMidYMid meet">

<g transform="translate(0.000000,24.000000) scale(0.100000,-0.100000)"
fill="#000000" stroke="none">
<path d="M86 204 c-9 -8 -16 -24 -16 -34 0 -10 -7 -21 -16 -24 -12 -4 -14 -19
-12 -63 l3 -58 75 0 75 0 3 58 c2 44 0 59 -12 63 -9 3 -16 17 -16 30 0 39 -55
58 -84 28z m62 -31 c3 -20 -1 -23 -27 -23 -23 0 -31 5 -31 18 0 25 10 33 35
30 12 -2 21 -12 23 -25z m-14 -71 c-1 -7 -2 -21 -2 -32 -1 -11 -6 -20 -11 -20
-10 0 -22 51 -14 63 7 11 28 3 27 -11z"/>
</g>
</svg>
